<?xml version="1.0" encoding="utf-8"?><svg xmlns="http://www.w3.org/2000/svg" xmlns:xlink="http://www.w3.org/1999/xlink"><symbol viewBox="0 0 41 69" id="top__slider_next" xmlns="http://www.w3.org/2000/svg"><path d="M40 34.95l-1.368-.919.722-.692L11.84 4.628l-.006-.007-.006-.006a2.213 2.213 0 00-3.157 0 2.345 2.345 0 00-.055 3.229l.006.006.006.007 25.967 27.095L8.631 62.05l-.005.007-.006.006a2.346 2.346 0 000 3.172 2.214 2.214 0 003.212.057l.006-.006.006-.007 27.513-28.71v-.001A2.334 2.334 0 0040 34.95z"/><path d="M37.63 33.1a2 2 0 010 2.8L13.18 60.874c-1.255 1.28-3.43.393-3.43-1.399V9.524c0-1.792 2.175-2.68 3.43-1.4l24.45 24.977z"/></symbol><symbol viewBox="0 0 41 69" id="top__slider_prev" xmlns="http://www.w3.org/2000/svg"><path d="M1 34.05l1.368.919-.722.692 27.513 28.71.006.007.006.006a2.213 2.213 0 003.157 0 2.346 2.346 0 00.055-3.229l-.006-.006-.006-.007L6.404 34.047 32.368 6.95l.006-.007.006-.006a2.346 2.346 0 000-3.172 2.214 2.214 0 00-3.212-.057l-.006.006-.006.007L1.643 32.43v.001A2.334 2.334 0 001 34.05z"/><path d="M3.37 35.9a2 2 0 010-2.8L27.82 8.126c1.255-1.28 3.43-.393 3.43 1.399v49.952c0 1.792-2.175 2.68-3.43 1.4L3.37 35.898z"/></symbol><symbol viewBox="0 0 160 50" id="tre" xmlns="http://www.w3.org/2000/svg"><path fill-opacity=".39" d="M0 50V38h161v12zm16-19V19h145v12zm23-19V0h122v12zm-26 0V0H0v12z"/></symbol></svg>