<svg width="194" height="49" fill="none" xmlns="http://www.w3.org/2000/svg">
  <g clip-path="url(#clip0)">
    <path fill-rule="evenodd" clip-rule="evenodd" d="M95.1 11l-5.4 12c-.4 1-1 2-1.6 3-.5.7-1.1 1.4-1.9 1.8a3.9 3.9 0 01-3.3.5 2.8 2.8 0 01-1.9-2.6 2.7 2.7 0 014.5-2c.5.4.9 1 1 1.7l.6-.8a11.5 11.5 0 00.6-1.2l.3-.6-6.1-12c-.2-.4-.5-1-1-1.3-.2-.2-.6-.3-1-.4V7.7h8.6v1.5H88l-.7.1a.6.6 0 00-.3.5v.5l.2.6 3.3 6.5 2.5-6 .2-.5v-.5a1 1 0 00-.4-1 2 2 0 00-1.1-.2h-.8V7.7h6.8V9c-.6 0-1 .3-1.5.5-.4.4-.8.9-1 1.4zm-83.3 8.8c-.7.7-1.6 1-2.6 1-1.3 0-2.3-.5-3-1.6-.7-1-1-2.5-1-4.5 0-1.9.3-3.3.8-4.3C6.6 9.5 7.5 9 8.7 9c.4 0 .9.1 1.2.3.4.2.5.4.5.6l-.5.6c-.3.4-.5 1-.5 1.5a2.2 2.2 0 00.7 1.7 2.5 2.5 0 001.8.6 2.6 2.6 0 002.8-2.7c0-1.2-.6-2.2-1.7-3a7.8 7.8 0 00-4.4-1 9 9 0 00-6.2 2A7.1 7.1 0 000 15.2c0 2.2.7 4 2.2 5.5a8 8 0 005.8 2c1.8 0 3.3-.4 4.5-1.3 1.2-.9 2-2.2 2.5-4l-1.5-.4c-.4 1.3-1 2.2-1.7 2.8zM173.3 8.5c-.7-.6-1.5-.8-2.4-.8-1 0-2 .4-2.8 1a8 8 0 00-2.1 3.1V7.7h-6.7V9c1 0 2.5.3 2.5 1.5v9c0 .4 0 .6-.2.9-.2.2-.5.3-.8.3h-.7v1.5h9.4v-1.5h-2c-.2 0-.5-.1-.7-.3-.2-.2-.3-.6-.3-.9v-3.1c0-2 .3-3.5 1-4.7a4.3 4.3 0 012.5-2.3 2.2 2.2 0 00-.6 1.4 2.3 2.3 0 00.7 1.7 2.2 2.2 0 001.6.7 2.3 2.3 0 001.8-.7c.5-.6.7-1.3.7-2a2.7 2.7 0 00-1-2.1zm-75.7 8.3h7.3v-2.2h-7.3v2.2zm52.5-.4h-1.5c-.5 1.8-1 3-1.7 3.5-.6.6-1.6.8-3.2.8H142l8.2-11.6V7.7H137l-.3 5.5h1.4a7 7 0 011.3-3.1 2.8 2.8 0 012.2-.9h2.8L136 20.9v1.4h13.6l.4-5.9zM32.8 20.5c-.2-.2-.3-.5-.2-.8V13c0-1.8-.4-3.1-1.2-4-.8-.9-2-1.3-3.8-1.3-1 0-2 .2-2.9.6-.9.5-1.7 1.2-2.3 2V0h-7.3v1.5c1.1 0 2.6-.1 2.6 1.5v16.7c0 .3 0 .6-.3.8-.2.2-.5.3-.8.3h-1.3v1.5h9.2v-1.5h-1c-.4 0-.7-.1-.9-.3-.2-.2-.3-.6-.2-.9v-4.4c0-1.7.2-3 .7-3.7.5-.8 1.3-1.2 2.4-1.2.8 0 1.4.3 1.8.8.3.4.5 1.2.5 2.2v6.3c0 .3 0 .6-.2.9-.2.2-.5.2-.8.2l-1 .1v1.5h9v-1.5h-1.2c-.3 0-.6-.1-.8-.3zm16-11a7.6 7.6 0 011.8 5.4v.4H40.4v.2c0 1.8.4 3 1 4 .8.9 1.8 1.3 3.2 1.3 1 0 2-.3 2.7-.9.8-.6 1.5-1.5 2-2.5l1.3.6a6.5 6.5 0 01-2.5 3.6 7.7 7.7 0 01-4.6 1.2c-2.5 0-4.5-.7-6-2a7.1 7.1 0 01-2.3-5.6c0-2.3.7-4.1 2.3-5.5a8.4 8.4 0 016-2.2c2.2 0 4 .7 5.2 2zm-2.9 3.3c0-1.3-.2-2.3-.5-2.8-.4-.6-1-1-1.9-1a2.5 2.5 0 00-2.2 1.2c-.5.8-.8 2-.8 3.5H45a.9.9 0 00.7-.2c.1-.2.2-.4.1-.7zm145.5 6.5V7.7H184V9c1.1 0 2.7 0 2.7 1.5v4.7c0 1.6-.2 2.8-.7 3.5-.5.8-1.3 1.2-2.3 1.2-.8 0-1.4-.3-1.7-.7-.4-.5-.5-1.3-.5-2.3V7.7H175V9c1 0 1.6.6 1.6 1.5V18c0 1.5.5 2.7 1.3 3.5.9.9 2 1.3 3.6 1.3a6.1 6.1 0 005.4-3v2.5h7.1v-1.5c-1.2 0-2.6.1-2.6-1.5zM78.7 20.5c-.2-.3-.2-.6-.2-.9V13c0-1.8-.4-3.1-1.2-4-.8-.8-2-1.2-3.7-1.2-1 0-2 .2-3 .7-1 .5-1.7 1.2-2.4 2.1V7.7h-7V9c1 0 2.5 0 2.5 1.5v9c0 .4 0 .6-.2.9-.2.2-.5.3-.8.3h-1v1.5h8.8v-1.5h-1c-.4 0-.7-.1-.9-.3l-.2-.8V15c0-1.7.3-2.9.7-3.6.5-.8 1.3-1.2 2.4-1.2.8 0 1.4.3 1.7.7.4.5.6 1.3.6 2.3v6.3c0 .3 0 .6-.2.9-.2.2-.5.2-.8.2l-1 .1v1.5h9.1v-1.5h-1.4c-.3 0-.6-.1-.8-.3zm32.5-.2l-2 2.5h-1.4a19 19 0 00.3-3.4V3c0-1.6-1.4-1.5-2.6-1.5V0h7.3v9.6c.6-.7 1.3-1.2 2-1.6.8-.3 1.7-.5 2.5-.5 2 0 3.7.7 5 2.1a7.8 7.8 0 011.8 5.5c0 2.3-.7 4.2-2 5.6a7.3 7.3 0 01-5.5 2.1c-1.1 0-2.2-.2-3.2-.6-.9-.4-1.6-1-2.2-2zm1.6-4.4c0 1.8.3 3 .8 4a2.5 2.5 0 002.3 1.3 2.4 2.4 0 002.3-1.4c.4-1 .7-2.4.7-4.4 0-2-.3-3.3-.8-4.3a2.4 2.4 0 00-2.2-1.3c-1 0-1.8.5-2.3 1.5a11 11 0 00-.8 4.6zM53.4 3v16.8c0 .3 0 .5-.2.8-.2.2-.5.3-.8.3H51v1.5h9.3v-1.5h-1.2c-.3 0-.6-.1-.8-.3-.2-.2-.3-.5-.2-.8V0h-7.3v1.5c.8 0 2.5.3 2.5 1.5zm76.3 2.5a2.7 2.7 0 100-5.4 2.7 2.7 0 000 5.4zm4.8 15.4h-1.2l-.9-.3-.2-.8v-12h-6.8V9c1.2 0 2.1 0 2.1 1.5v9c0 .4 0 .7-.2 1l-.8.2H125v1.5h9.4v-1.5zm20.7-3.6a2.7 2.7 0 00-2 4.7 2.7 2.7 0 102-4.7zM19.6 43.1h14V42h-14v1zm140.6 0h14V42h-14v1zM48 42.6v3.7h-1v.4h4v-.4h-1.2v-7h1.1V39h-4v.3H48v3h-3v-3h1V39h-4v.3h1.2v7H42v.4h4v-.4h-1v-3.6h3zm7.5 3.9c-.8 0-1.2-.3-1.5-.9a6 6 0 01-.3-2v-1.2h5c0-.8-.2-1.5-.6-2.2a3 3 0 00-1.3-1.1l-1.5-.3c-.6 0-1.3.1-1.8.5-.6.3-1 .8-1.3 1.4a4.5 4.5 0 000 4.2 3.9 3.9 0 003.4 2 3 3 0 001.8-.6c.5-.4 1-1 1.4-1.6l-.3-.2c-1 1.3-2 2-3 2zM53.7 41c0-.5.1-1 .4-1.3.2-.4.6-.6 1.3-.6a1.2 1.2 0 011.2.6l.3 1.8v.6h-3.2V41zm6.5 6.6c.2-.3.4-.6.7-.7l1.4-.3h1.5l1.6.3c.4 0 .8.3 1 .7.3.4.5.9.5 1.4h.4l-.2-2.7H66v-7h1.2V39h-7.2v.3l1 .1a.7.7 0 01.4.4v4.4c-.1.8-.3 1.4-.5 1.7a1.2 1.2 0 01-1 .4h-.3l-.2 2.7h.4l.5-1.4zm.7-1.3l.4-.5.2-.8.1-1.2a155.8 155.8 0 00.3-4.1c0-.1 0-.2.2-.3l.8-.1h1.3v7h-3.3zm7 0v.4h5c.5 0 .8-.1 1.2-.3.4-.2.8-.4 1-.7.3-.4.5-.8.5-1.2a1.5 1.5 0 00-.8-1.3c-.6-.4-1.3-.6-2-.6.8-.1 1.4-.4 1.8-.7a1.7 1.7 0 00.6-1.3 1.4 1.4 0 00-.8-1.1C74 39 73.2 39 72 39h-4.2v.3H69v7h-1.2zm2.8-7h1c.6 0 1 .1 1.2.3l.3 1v.7c0 .8-.5 1.1-1.3 1.1h-1.2v-3.1zm0 3.4h1.4c.6 0 1 .2 1.1.5.3.4.4.8.4 1.3 0 .7-.2 1.3-.4 1.5-.3.2-.7.4-1.1.3h-1.4v-3.6zm8.6-3.4h1V39h-3.8v.3h1v7h-1v.4h3.9v-.4h-1v-.7l3-5.2v6h-1v.3h4v-.4h-1.2v-7h1.1V39h-3.9v.3h1v.5l-3 5.2v-5.7zm15.2 0V39h-4v.3h1.1v3.2l-1-.1a1 1 0 01-.5-.4c-.2-.2-.3-.4-.3-.7l-.3-1-.3-.7c0-.2-.2-.4-.4-.6-.3-.2-.6-.2-.9-.2l-.7.1-.5.5-.2.6a1.1 1.1 0 00.3.9.9.9 0 00.7.2l.6-.1a.6.6 0 00.3-.6V40v-.2a.3.3 0 010-.3h.4l.2.3v.5l.5 1.4.5.7H90l-.2.1c-.6.1-1.1.4-1.6.7-.4.4-.6.9-.6 1.6 0 .3 0 .6-.2 1-.1.2-.2.3-.4.3s-.3 0-.4-.2c-.2 0-.3-.2-.4-.3l-.2.1a2.2 2.2 0 001.9 1.1c.5 0 1-.2 1.1-.6.2-.5.4-1 .4-1.5 0-.4.1-.8.3-1.1 0-.3.3-.5.6-.6.5-.2 1-.3 1.4-.2v3.5h-1v.4h4v-.4h-1.2v-3.5h.5c.7 0 1.1.1 1.4.5.2.4.4.9.4 1.4 0 .5.2 1 .5 1.6.1.3.5.5 1 .5a2.2 2.2 0 002-1l-.3-.2-.3.3-.5.2c-.1 0-.3-.1-.4-.4l-.1-.9c0-.7-.3-1.2-.7-1.6a4 4 0 00-1.5-.7H95l.5-.8a12.8 12.8 0 00.6-1.9s0-.2.2-.2l.1-.1h.2a.3.3 0 01.1.3v.2c0 .1-.1.2 0 .4a.7.7 0 00.2.6l.6.2a1 1 0 00.7-.3 1.1 1.1 0 00.3-.9c0-.2 0-.4-.2-.6l-.5-.5-.7-.1a1.2 1.2 0 00-1 .4c-.4.5-.6 1-.7 1.5 0 .4-.2.8-.3 1.1a1 1 0 01-.5.5 3 3 0 01-1.2.2v-3.2h1.1zm8.1 0h1V39h-3.9v.3h1.1v7h-1v.4h3.8v-.4h-1v-.7l3-5.2v6h-1v.3h4v-.4h-1.2v-7h1.2V39h-4v.3h1v.5l-3 5.2v-5.7zm7 0c.7 0 1 .3 1 1v5c0 .5-.1.7-.3.8l-.5.2h-.3v.4h2.6v-.4c-.5 0-.8 0-1-.2-.1-.2-.2-.5-.1-.8v-5.8l2.8 7.1h.2l2.8-7.1v6.8h-1.1v.4h4v-.4h-1.1v-7h1.1V39h-3l-2.1 5.3-2.2-5.3h-3.1v.3h.3zm11.4 5.5a4 4 0 001.3 1.5c.6.4 1.3.6 2 .5a3.7 3.7 0 003-1.2 4.3 4.3 0 001-2.8 4.2 4.2 0 00-1.9-3.4 3.9 3.9 0 00-4 0c-.7.3-1.1.9-1.4 1.5a4.2 4.2 0 000 3.8zm2-5.1a1.7 1.7 0 011.4-.6 1.5 1.5 0 011.2.5c.3.4.5.8.5 1.3a13 13 0 010 4.2c-.1.4-.3.8-.7 1.1a2 2 0 01-2.2 0l-.6-1.2-.1-2.1v-1.4c0-.8.2-1.4.6-1.8zm11.5 6.4c-.4.3-1 .4-1.4.4-.8 0-1.3-.2-1.6-.7-.3-.5-.5-1.2-.4-1.9v-2.3c0-.5 0-1.1.3-1.7.1-.3.4-.5.7-.7l1-.1.7.1c.2.1.2.2.2.3l-.1.4a1.7 1.7 0 00-.4.8 1 1 0 00.3.8 1 1 0 00.8.3 1 1 0 00.8-.3c.2-.2.3-.5.2-.9 0-.3 0-.6-.3-.9-.2-.3-.6-.5-1-.7l-1.3-.2a3.7 3.7 0 00-3.5 2.1 4.3 4.3 0 000 3.9c.4.6.8 1.1 1.4 1.5.7.4 1.4.5 2.1.5 1.3 0 2.2-.7 2.7-2l-.3-.2c-.2.6-.5 1-.9 1.5zm2-7.1l-.2 2.9h.4c0-.5.3-1 .5-1.4.1-.4.4-.7.7-1l1.3-.2v7H138v.4h4v-.4h-1v-7a2 2 0 011.7.7c.4.5.7 1.2.8 1.9h.4l-.2-3h-7.3zm10.8.3h1.1V39h-4v.3h1v7h-1v.4h4.3c.6 0 1.1-.1 1.7-.4.4-.2.7-.4 1-.8a2 2 0 00-.1-2.1c-.3-.4-.7-.7-1.1-.9l-2-.3h-1v-3zm0 3.2h.8c.4 0 .7 0 1 .3.3.1.4.4.4.7l.1 1.3c0 .3 0 .7-.2 1a.8.8 0 01-.5.5h-1.6v-3.8z" fill="#554740"/>
  </g>
  <defs>
    <clipPath id="clip0">
      <path fill="#fff" d="M0 0h194v49H0z"/>
    </clipPath>
  </defs>
</svg>
